# xmcd
#
# Track frame offsets: 
#        300
#        16569
#        35226
#        53716
#        74685
#        92416
#        112375
#        130636
#        143347
#        155996
#        177543
#        195003
#        209901
#
# Disc length: 3004 seconds
#
# Revision: 0
# Processed by: cddbd v1.5.2PL0 Copyright (c) Steve Scherf et al.
# Submitted via: ExactAudioCopy v1.0b1
#
DISCID=bd0bb80d
DTITLE=Candye Kane - Sister Vagabond
DYEAR=2011
DGENRE=Blues
TTITLE0=I Love to Love You
TTITLE1=Love Insurance
TTITLE2=Sweet Nothin's
TTITLE3=Walkin', Talkin' Haunted House
TTITLE4=You Never Cross My Mind
TTITLE5=Everybody's Gonna Love Somebody Tonight
TTITLE6=You Can't Take It Back from Here
TTITLE7=Side Dish
TTITLE8=You Can't Hurt Me Anymore
TTITLE9=Hard Knock Gal
TTITLE10=Have a Nice Day
TTITLE11=Down With the Blues
TTITLE12=I Deserve Love
EXTD=
EXTT0=
EXTT1=
EXTT2=
EXTT3=
EXTT4=
EXTT5=
EXTT6=
EXTT7=
EXTT8=
EXTT9=
EXTT10=
EXTT11=
EXTT12=
PLAYORDER=
